<?xml version="1.0" encoding="UTF-8"?>
<svg xmlns="http://www.w3.org/2000/svg" xmlns:xlink="http://www.w3.org/1999/xlink" viewBox="0 0 48 48" version="1.1" width="48px" height="48px">
<g id="surface1">
<path style=" fill:#8BC34A;" d="M 18 6 C 9.199219 6 2 12 2 19.5 C 2 23.800781 4.300781 27.5 8 30 L 6 36 L 12.300781 32.101563 C 14 32.699219 16 33 18 33 C 26.800781 33 34 27 34 19.5 C 34 12 26.800781 6 18 6 Z "/>
<path style=" fill:#7CB342;" d="M 20 29 C 20 22.898438 25.800781 18 33 18 C 33.300781 18 33.601563 18 33.898438 18 C 33.800781 17.300781 33.601563 16.601563 33.398438 16 C 33.300781 16 33.101563 16 33 16 C 24.699219 16 18 21.800781 18 29 C 18 30.398438 18.300781 31.699219 18.699219 33 C 19.398438 33 20.101563 32.898438 20.800781 32.800781 C 20.300781 31.601563 20 30.300781 20 29 Z "/>
<path style=" fill:#CFD8DC;" d="M 46 29 C 46 22.898438 40.199219 18 33 18 C 25.800781 18 20 22.898438 20 29 C 20 35.101563 25.800781 40 33 40 C 34.800781 40 36.5 39.699219 38 39.199219 L 43 42 L 41.601563 37.199219 C 44.300781 35.199219 46 32.300781 46 29 Z "/>
<path style=" fill:#33691E;" d="M 14 15 C 14 16.101563 13.101563 17 12 17 C 10.898438 17 10 16.101563 10 15 C 10 13.898438 10.898438 13 12 13 C 13.101563 13 14 13.898438 14 15 Z M 24 13 C 22.898438 13 22 13.898438 22 15 C 22 16.101563 22.898438 17 24 17 C 25.101563 17 26 16.101563 26 15 C 26 13.898438 25.101563 13 24 13 Z "/>
<path style=" fill:#546E7A;" d="M 30 26.5 C 30 27.300781 29.300781 28 28.5 28 C 27.699219 28 27 27.300781 27 26.5 C 27 25.699219 27.699219 25 28.5 25 C 29.300781 25 30 25.699219 30 26.5 Z M 37.5 25 C 36.699219 25 36 25.699219 36 26.5 C 36 27.300781 36.699219 28 37.5 28 C 38.300781 28 39 27.300781 39 26.5 C 39 25.699219 38.300781 25 37.5 25 Z "/>
</g>
</svg>
