<?xml version="1.0" encoding="iso-8859-1"?>
<!-- Generator: Adobe Illustrator 19.0.0, SVG Export Plug-In . SVG Version: 6.00 Build 0)  -->
<svg version="1.1" id="Capa_1" xmlns="http://www.w3.org/2000/svg" xmlns:xlink="http://www.w3.org/1999/xlink" x="0px" y="0px"
	 viewBox="0 0 512 512" style="enable-background:new 0 0 512 512;" xml:space="preserve">
<polygon style="fill:#FFE985;" points="277.924,207.7 29.86,391.499 29.86,23.901 "/>
<polygon style="fill:#FEDC3D;" points="481.86,23.901 481.86,391.499 233.795,207.7 "/>
<polygon style="fill:#FFE985;" points="481.86,391.499 213.016,391.499 213.016,207.7 298.061,207.7 "/>
<polygon style="fill:#FFF2B8;" points="255.86,207.7 255.86,391.499 29.86,391.499 213.659,207.7 "/>
<polygon style="fill:#DFC136;" points="255.86,23.9 255.86,249.9 481.86,23.9 "/>
<polygon style="fill:#FEDC3D;" points="29.86,23.9 255.86,249.9 255.86,23.9 "/>
<polygon style="fill:#027372;" points="512,488.1 256,488.1 226,428.1 512,458.1 "/>
<g>
	<polygon style="fill:#02ACAB;" points="256,488.1 0,488.1 0,458.1 256,428.1 	"/>
	<polygon style="fill:#02ACAB;" points="512,247.1 512,458.1 256,458.1 206,405.35 256,352.6 395.67,352.6 425.67,247.1 	"/>
</g>
<polygon style="fill:#42C8C6;" points="256,352.6 256,458.1 0,458.1 0,247.1 86.33,247.1 116.33,352.6 "/>
<g>
</g>
<g>
</g>
<g>
</g>
<g>
</g>
<g>
</g>
<g>
</g>
<g>
</g>
<g>
</g>
<g>
</g>
<g>
</g>
<g>
</g>
<g>
</g>
<g>
</g>
<g>
</g>
<g>
</g>
</svg>
